<?xml version="1.0" encoding="UTF-8"?>
<svg xmlns="http://www.w3.org/2000/svg" xmlns:xlink="http://www.w3.org/1999/xlink" width="40pt" height="40pt" viewBox="0 0 40 40" version="1.1">
<defs>
<filter id="alpha" filterUnits="objectBoundingBox" x="0%" y="0%" width="100%" height="100%">
  <feColorMatrix type="matrix" in="SourceGraphic" values="0 0 0 0 1 0 0 0 0 1 0 0 0 0 1 0 0 0 1 0"/>
</filter>
<mask id="mask0">
  <g filter="url(#alpha)">
<rect x="0" y="0" width="40" height="40" style="fill:rgb(0%,0%,0%);fill-opacity:0.25098;stroke:none;"/>
  </g>
</mask>
<clipPath id="clip1">
  <rect x="0" y="0" width="40" height="40"/>
</clipPath>
<g id="surface5" clip-path="url(#clip1)">
<path style=" stroke:none;fill-rule:nonzero;fill:rgb(0%,0%,0%);fill-opacity:1;" d="M 24.222656 18.261719 L 21.167969 14.1875 C 20.71875 13.589844 20.871094 13.292969 21.613281 13.292969 L 24.347656 13.292969 C 25.09375 13.292969 25.6875 13.589844 26.136719 14.1875 L 32.25 22.335938 C 32.695312 22.933594 32.695312 23.527344 32.25 24.125 L 26.136719 32.273438 C 25.6875 32.871094 25.09375 33.167969 24.347656 33.167969 L 21.613281 33.167969 C 20.871094 33.167969 20.71875 32.871094 21.167969 32.273438 L 27.28125 24.125 C 27.726562 23.527344 27.726562 22.933594 27.28125 22.335938 Z M 24.222656 18.261719 "/>
</g>
<mask id="mask1">
  <g filter="url(#alpha)">
<rect x="0" y="0" width="40" height="40" style="fill:rgb(0%,0%,0%);fill-opacity:0.25098;stroke:none;"/>
  </g>
</mask>
<clipPath id="clip2">
  <rect x="0" y="0" width="40" height="40"/>
</clipPath>
<g id="surface8" clip-path="url(#clip2)">
<path style=" stroke:none;fill-rule:nonzero;fill:rgb(0%,0%,0%);fill-opacity:1;" d="M 16.769531 23.230469 L 19.976562 27.503906 C 20.324219 27.96875 20.207031 28.199219 19.628906 28.199219 L 16.398438 28.199219 C 15.816406 28.199219 15.355469 27.96875 15.007812 27.503906 L 8.597656 18.957031 C 8.25 18.492188 8.25 18.027344 8.597656 17.566406 L 15.007812 9.019531 C 15.355469 8.554688 15.816406 8.324219 16.398438 8.324219 L 19.628906 8.324219 C 20.207031 8.324219 20.324219 8.554688 19.976562 9.019531 L 13.566406 17.566406 C 13.21875 18.027344 13.21875 18.492188 13.566406 18.957031 Z M 16.769531 23.230469 "/>
</g>
<mask id="mask2">
  <g filter="url(#alpha)">
<rect x="0" y="0" width="40" height="40" style="fill:rgb(0%,0%,0%);fill-opacity:0.25098;stroke:none;"/>
  </g>
</mask>
<clipPath id="clip3">
  <rect x="0" y="0" width="40" height="40"/>
</clipPath>
<g id="surface11" clip-path="url(#clip3)">
<path style=" stroke:none;fill-rule:nonzero;fill:rgb(0%,0%,0%);fill-opacity:1;" d="M 24.222656 20.746094 C 24.222656 18.6875 22.554688 17.019531 20.496094 17.019531 C 18.4375 17.019531 16.769531 18.6875 16.769531 20.746094 C 16.769531 22.804688 18.4375 24.472656 20.496094 24.472656 C 22.554688 24.472656 24.222656 22.804688 24.222656 20.746094 Z M 24.222656 20.746094 "/>
</g>
<linearGradient id="linear0" gradientUnits="userSpaceOnUse" x1="0" y1="0" x2="1" y2="0" gradientTransform="matrix(7.453125,0,0,7.453125,16.273438,16.273438)">
<stop offset="0" style="stop-color:rgb(31.372549%,98.039216%,48.235294%);stop-opacity:1;"/>
<stop offset="1" style="stop-color:rgb(54.509804%,91.372549%,99.215686%);stop-opacity:1;"/>
</linearGradient>
</defs>
<g id="surface1">
<path style=" stroke:none;fill-rule:nonzero;fill:rgb(15.686275%,16.470588%,21.176471%);fill-opacity:1;" d="M 0.125 0.125 L 39.875 0.125 L 39.875 39.875 L 0.125 39.875 Z M 0.125 0.125 "/>
<use xlink:href="#surface5" mask="url(#mask0)"/>
<path style=" stroke:none;fill-rule:nonzero;fill:rgb(54.509804%,91.372549%,99.215686%);fill-opacity:1;" d="M 23.726562 17.515625 L 20.671875 13.441406 C 20.222656 12.84375 20.371094 12.546875 21.117188 12.546875 L 23.851562 12.546875 C 24.597656 12.546875 25.191406 12.84375 25.640625 13.441406 L 31.75 21.589844 C 32.199219 22.1875 32.199219 22.78125 31.75 23.378906 L 25.640625 31.527344 C 25.191406 32.125 24.597656 32.421875 23.851562 32.421875 L 21.117188 32.421875 C 20.371094 32.421875 20.222656 32.125 20.671875 31.527344 L 26.78125 23.378906 C 27.230469 22.78125 27.230469 22.1875 26.78125 21.589844 Z M 23.726562 17.515625 "/>
<use xlink:href="#surface8" mask="url(#mask1)"/>
<path style=" stroke:none;fill-rule:nonzero;fill:rgb(31.372549%,98.039216%,48.235294%);fill-opacity:1;" d="M 16.273438 22.484375 L 19.476562 26.757812 C 19.824219 27.222656 19.710938 27.453125 19.128906 27.453125 L 15.902344 27.453125 C 15.320312 27.453125 14.855469 27.222656 14.507812 26.757812 L 8.097656 18.210938 C 7.75 17.746094 7.75 17.285156 8.097656 16.820312 L 14.507812 8.273438 C 14.855469 7.808594 15.320312 7.578125 15.902344 7.578125 L 19.128906 7.578125 C 19.710938 7.578125 19.824219 7.808594 19.476562 8.273438 L 13.066406 16.820312 C 12.71875 17.285156 12.71875 17.746094 13.066406 18.210938 Z M 16.273438 22.484375 "/>
<use xlink:href="#surface11" mask="url(#mask2)"/>
<path style=" stroke:none;fill-rule:nonzero;fill:url(#linear0);" d="M 23.726562 20 C 23.726562 17.941406 22.058594 16.273438 20 16.273438 C 17.941406 16.273438 16.273438 17.941406 16.273438 20 C 16.273438 22.058594 17.941406 23.726562 20 23.726562 C 22.058594 23.726562 23.726562 22.058594 23.726562 20 Z M 23.726562 20 "/>
</g>
</svg>
